<svg xmlns="http://www.w3.org/2000/svg" viewBox="0 0 714.48 646.46"><path d="M267,421.63l-47.45,47.45L217,471.61a12.85,12.85,0,0,0,18.18,18.17l50-50C296.75,427.79,279,409.81,267,421.63Z" style="fill:#243e70"/><path d="M380.57,417.09,289.69,508c-11.77,11.9,6.22,30,18.19,18.16,27-27,64.1-64.09,90.86-90.86C410.34,423.24,392.51,405.27,380.57,417.09Z" style="fill:#243e70"/><path d="M707.43,173c-19.94-184-270.37-226.55-350.16-59.68C229.83-120.24-97,63.57,37.68,304.1h182c27.78-15.09,46.46-38,102.79-38.55,8.29-.1,8.37,13,0,12.85-42.35,0-66.65,17.21-82.73,28.6-8.15,5.78-14.05,9.95-20.06,9.95H44.6c29.21,51.62,67,97.87,107.35,141.16h60.38l45.57-45.56c13.07-14,38.78-7.13,42.92,11.6L317,408c13.07-14,38.77-7.13,42.92,11.59L371.48,408c26.73-23.94,69.63,14.89,22.85,49.83,55.39,21.86-24.67,74.76-41,95.54-13.62,14.62-40.32,6.38-43.4-13.3-14.2,7.49-33.76-1.93-36.34-18.17-14.17,7.48-33.92-1.9-36.14-18.28-20.5,10.79-44-11.32-35-32.67H164.14A1604.91,1604.91,0,0,0,357.28,640.28,1615.22,1615.22,0,0,0,550.39,471H528.07c-8.33.12-8.34-13,0-12.85h34.54c40.27-43.35,78.22-89.64,107.36-141.35H528.07c-5.94,0-14.7-4.92-32.37-15.17-113-70.81-143.1-30.59-193.37,63.56.18,2.71,12,9.63,20.14,9.63,6.18,0,10.45-4.6,18.08-13.4,5.72-7.66,34.67-34.87,41.63-42.55,7.26-7.26,8.87-8.3,17.39-8.3,11.69-5.37,88,85.11,101.13,98.47.64.64,8.1,8.35,8.1,17.17V484c.57,19.47-22.59,32.45-38.81,22-1.34,18-23.26,29.21-38.55,19.27-1.45,20.22-27.8,30.48-42.57,16.44-6.31-5.42,2.46-15.28,8.57-9.56,22.07,13.24,22.59-14.53,21.42-28.86v-51.4c-.12-8.33,13-8.34,12.85,0v51.4c.09,16.83,25.6,16.77,25.7,0-1-87.94,11.42-54.21-49.52-117.53-6-5.82,3.28-15,9.08-9.08l45,45c.85.86,8.31,8.57,8.31,17.39v45c.1,16.82,25.58,16.78,25.7,0V426.17c-11.87-19.83-77.79-91.52-96.86-102.8-4.37-.32-3.8,1-7.82,4.55L359.14,360c-11.33,10.85-19.66,27.54-36.67,27.59-12.06.15-39.26-11.48-31.45-28.58,1.36-2.36,28.88-49.82,39-64.93,55.34-80.16,130.56-25.55,198.16,9.8H676.88C697.53,263.86,712.84,218.55,707.43,173Z" style="fill:#243e70"/><path d="M326.05,417.09l-72.69,72.69c-12.12,14.92,8,35.19,27.24,9.1,0,0,35.36-35.34,35.35-35.35l28.27-28.27C355.81,423.25,338,405.26,326.05,417.09Z" style="fill:#243e70"/><path d="M326.05,526.13c-8.12,7.56-2,22.33,9.08,21.93,7.16,3.47,56.23-52.91,61.73-56.4,11.57-12-6.15-30-18.15-18.19l-49,48.95Z" style="fill:#243e70"/><path d="M354,644.11c-37.15-29.23-74-58.82-109.75-89.79S174,491,141.74,456.42,79.52,385,54.6,344.72a451,451,0,0,1-32.69-63A336,336,0,0,1,1.3,213.84v-.08a209.28,209.28,0,0,1,3-65.67,180.89,180.89,0,0,1,25-60.82,186.11,186.11,0,0,1,45.06-48A198.57,198.57,0,0,1,198.3.08a186.63,186.63,0,0,1,64.59,13.31,181.61,181.61,0,0,1,55.68,35.39A210,210,0,0,1,359,100.92l-3.48,0a206.51,206.51,0,0,1,39.6-50.47,182.75,182.75,0,0,1,54-34.54A188,188,0,0,1,511.77,2,200.16,200.16,0,0,1,575.45,9.2a198,198,0,0,1,58.07,27.06,186.72,186.72,0,0,1,46,44.55,181.3,181.3,0,0,1,27.75,57.61,206.1,206.1,0,0,1,7.08,63.52V202a295.12,295.12,0,0,1-17.83,70.71,416.68,416.68,0,0,1-32.25,65.4,603.52,603.52,0,0,1-41.46,60c-14.94,19.17-30.83,37.58-47.35,55.4-33,35.67-68.5,69-105.16,100.82s-74.61,62.25-112.9,92.14h0Zm0,0,3.32,2.34h0c38.22-30,76.09-60.43,112.69-92.37s72-65.28,104.9-101c16.41-17.9,32.19-36.38,47-55.6a601.19,601.19,0,0,0,41-60.07,414.15,414.15,0,0,0,31.77-65.31,292.89,292.89,0,0,0,17.33-70.31v.08a202.93,202.93,0,0,0-7.33-62.73,178.35,178.35,0,0,0-27.63-56.6A184.07,184.07,0,0,0,631.69,39,196.38,196.38,0,0,0,512,5.58a184.69,184.69,0,0,0-61.33,13.76,178.83,178.83,0,0,0-52.84,33.94A203.66,203.66,0,0,0,359,102.86l-1.76,3.1-1.73-3.12A206.49,206.49,0,0,0,316,51.6,177.93,177.93,0,0,0,261.5,16.83,183.21,183.21,0,0,0,198.2,3.64a196.38,196.38,0,0,0-122,38.17,183.16,183.16,0,0,0-44.58,47,178.15,178.15,0,0,0-25,59.81,207.19,207.19,0,0,0-3.3,64.93v-.08a334.15,334.15,0,0,0,20.13,67.63A450.22,450.22,0,0,0,55.73,344a623.45,623.45,0,0,0,40.46,58.1c14.54,18.62,29.94,36.56,46,53.89,32.13,34.67,66.66,67,102.3,98.08S317,614.8,354,644.11Z" style="fill:#243e70"/><path d="M694.65,263.75c-51-56.61-157-140.38-338.13-140.38-181.76,0-287,84.35-337.22,141a268.89,268.89,0,0,0,13.85,31.32c62-57.56,177.33-141.08,324.35-141.08,146.57,0,261.62,83,323.77,140.54A332.2,332.2,0,0,0,694.65,263.75Z" style="fill:#9f2a2b"/></svg>