<svg xmlns="http://www.w3.org/2000/svg" viewBox="0 0 702.8 906.46"><path d="M301,784.69a40.15,40.15,0,0,1,11.42,11.41,19.69,19.69,0,0,1,3.15,14q-1.67,10.49-16.88,20.41a64.38,64.38,0,0,1-14.94,7.1,83.62,83.62,0,0,1-16.93,3.71,130.93,130.93,0,0,1-17,.83,134.47,134.47,0,0,1-16.75-1.34,48.29,48.29,0,0,1-6.77-1.39,45.72,45.72,0,0,1-6.63-2.51A17.47,17.47,0,0,1,214,832.7a12.37,12.37,0,0,1-3-6.08,16.38,16.38,0,0,1,2.27-12.29A59.58,59.58,0,0,1,223.3,802.6a11,11,0,0,1,3.9-2.23q1.2-.55,1.2,0a2.39,2.39,0,0,1-.55,1,23.5,23.5,0,0,0-3.9,8.39,16.33,16.33,0,0,0-.19,8.77q2,7,12.34,10.39,14.21,4.83,41.38,2.14,11.68-1.22,19.3-4.46,6.12-2.6,6.4-9.92a19.22,19.22,0,0,0-1.53-8.45,23.61,23.61,0,0,0-5-7.28,59.7,59.7,0,0,0-6.36-5.57q-3.06-2.26-7.33-4.87-19.11-11.49-29.78-21.8a57.88,57.88,0,0,1-4.26-4.5,37.94,37.94,0,0,1-3.53-4.91A21.89,21.89,0,0,1,243,754a15.82,15.82,0,0,1-.51-5.66,17.85,17.85,0,0,1,1.62-6.12Q249,731.81,265.7,721q16.43-10.76,28.76-11.5A19.06,19.06,0,0,1,307.31,713a16.06,16.06,0,0,1,6.54,11.18q1.84,13.08-13,25.42a13,13,0,0,1-4,2.32c-1.18.43-1.42.19-.74-.74l.18-.37a30.3,30.3,0,0,0,4.13-8.26,26.72,26.72,0,0,0,1.35-8.81,14.39,14.39,0,0,0-2.69-8.07,15.08,15.08,0,0,0-7.61-5.48q-8.16-2.87-19.3,1.58t-15.4,12.15A14,14,0,0,0,255,741a17.48,17.48,0,0,0,1.25,6.4,25.84,25.84,0,0,0,4.08,6.22,66,66,0,0,0,4.83,5.28q1.89,1.81,5.33,4.78a105.26,105.26,0,0,0,9.23,7.15q5,3.43,11.55,7.56T301,784.69Z" transform="translate(-160.86 -61.5)" style="fill:#1d1d1b"/><path d="M364.13,783.11q6.76,8.91,1.11,26.44-4,12.16-10.76,19.76a29.16,29.16,0,0,1-9.41,7.8,20,20,0,0,1-11.18,2.5,15.33,15.33,0,0,1-8-2.78,14.55,14.55,0,0,1-4.87-6.12,30.43,30.43,0,0,1-2.13-7.8,35.45,35.45,0,0,1-.1-8.44q2.06-19.76,16.89-31.08,8.07-6,13-6.4h.28Q358.48,775.59,364.13,783.11Zm-33,28.11q.19,10.57,6.87,17.17,6.12,6,12.06,2.13a23.67,23.67,0,0,0,4.17-9.46,76.32,76.32,0,0,0,1.95-13.83q.47-11.87-5.29-18.55a15.63,15.63,0,0,0-1.2-1.25,11.3,11.3,0,0,0-1.49-1.16l-1.39-.93c-.37-.25-.9-.56-1.58-.93s-1.17-.65-1.48-.83a17,17,0,0,0-4.36,1.57q-2.88,1.68-5.2,7.61A48.23,48.23,0,0,0,331.1,811.22Z" transform="translate(-160.86 -61.5)" style="fill:#1d1d1b"/><path d="M398.55,829.59c.8-.06.82.48.05,1.63a19.36,19.36,0,0,1-2.18,2.73,20,20,0,0,1-7.89,5q-12.81,3.62-16.7-3.8a13.62,13.62,0,0,1-1-2.46,14.37,14.37,0,0,1-.51-3c-.09-1.14-.15-2-.19-2.6s0-1.6,0-3.06.05-2.33.05-2.64q0-4.83.19-14.29.09-9.93.69-28.34t.7-26.21q.18-16.79-.84-25.14c0-.12-.06-.7-.18-1.72s-.22-1.71-.28-2.09l-.33-2a11.4,11.4,0,0,0-.51-2.18c-.18-.49-.41-1.1-.69-1.81a6.49,6.49,0,0,0-1-1.76,7,7,0,0,0-1.29-1.25c-.38-.25.1-1.09,1.43-2.51a27.76,27.76,0,0,1,4.64-3.94c1.76-1.21,3-1.69,3.67-1.44a8,8,0,0,1,4.45,4.18,28.36,28.36,0,0,1,2.13,7.32q1.31,7.71,1.3,23.38,0,9.47-.83,37.85-.37,16.62-.47,25.15v5.1c0,.56,0,1.62-.09,3.2s-.11,2.78-.14,3.62a25.17,25.17,0,0,0,.14,3.15,22.59,22.59,0,0,0,.56,3.39,8.23,8.23,0,0,0,3.38,5.19,9.18,9.18,0,0,0,5.38,1.49Z" transform="translate(-160.86 -61.5)" style="fill:#1d1d1b"/><path d="M415.25,757.23l-11.13,11.13-11-11.13,11-11.13ZM426.2,829.5c1.29-.06.65,1.27-1.95,4a1.13,1.13,0,0,1-.19.28,20.14,20.14,0,0,1-7.88,5q-12,3.33-16.24-3a9.14,9.14,0,0,1-1.07-2.09c-.27-.77-.48-1.41-.6-1.9a17.31,17.31,0,0,1-.32-2.41c-.1-1.12-.14-1.81-.14-2.09v-4.5q0-4.92.18-14.75,0-7.43.56-22.27.09-2.59,6.86-6.86a7.5,7.5,0,0,1,1.12-.74c.43-.25,1.09-.59,2-1a3.29,3.29,0,0,1,1.86-.52,1.28,1.28,0,0,1,.79.79c0,.19,0,.48-.05.88s-.05.7-.05.89q-.56,31.9-.55,32.1c-.13,1.73-.17,3.86-.14,6.4a19,19,0,0,0,1,6.31,7.8,7.8,0,0,0,3.62,4.59,9.35,9.35,0,0,0,5.33,1.11C422.19,829.58,424.15,829.5,426.2,829.5Z" transform="translate(-160.86 -61.5)" style="fill:#1d1d1b"/><path d="M496.7,829.59c.81-.06.81.48,0,1.63a20.8,20.8,0,0,1-2.22,2.73,18.81,18.81,0,0,1-7.8,5q-12.89,3.62-16.79-3.8a13,13,0,0,1-1-2.51,13.14,13.14,0,0,1-.46-2.92c-.06-1.08-.11-2-.14-2.64s0-1.69,0-3,0-2.21,0-2.64c0-4.27,0-7.45.1-9.56A86.87,86.87,0,0,1,459.78,823q-1.95,2.13-3.9,4c-1.3,1.27-2.9,2.77-4.82,4.5a37.7,37.7,0,0,1-5.71,4.31,40.61,40.61,0,0,1-5.89,3,14.27,14.27,0,0,1-6.12,1.12,10.84,10.84,0,0,1-5.57-1.81,9.93,9.93,0,0,1-4.45-7.52,20.92,20.92,0,0,1,1.53-10.16,68.51,68.51,0,0,1,4.69-9.64,45,45,0,0,1,5.19-7.29q5.56-6.3,17.35-14.56a71.81,71.81,0,0,0,10.2-8.31,40.42,40.42,0,0,0,7-9.78.26.26,0,0,1,.1-.19q.36-12.06.46-18.09.18-16.79-.84-25.14c0-.12-.06-.7-.18-1.72s-.22-1.71-.28-2.09-.17-1-.32-2a13.17,13.17,0,0,0-.51-2.18c-.19-.49-.42-1.1-.7-1.81a6.76,6.76,0,0,0-1-1.76,7.34,7.34,0,0,0-1.3-1.25c-.37-.25.1-1.09,1.43-2.51a27,27,0,0,1,4.69-3.94c1.79-1.21,3-1.69,3.71-1.44a7.82,7.82,0,0,1,4.41,4.13,29.56,29.56,0,0,1,2.08,7.37q1.31,7.71,1.3,23.38,0,9.47-.83,37.85-.19,8.26-.37,25.15v2.59a.86.86,0,0,0-.1.28v2.23c0,.31,0,1.34-.09,3.11s-.09,3-.09,3.75.06,1.77.18,3.07a24.09,24.09,0,0,0,.56,3.43,8.28,8.28,0,0,0,3.39,5.19,9.16,9.16,0,0,0,5.38,1.49Zm-40.82-6.4q7.42-8,12.62-20.78,0-.18.56-21.8-2.24,1.95-8.54,6.86L455.65,791q-3.48,2.57-5,3.76t-4.17,3.67a30.34,30.34,0,0,0-4,4.4,38.28,38.28,0,0,0-2.87,4.83,25.58,25.58,0,0,0-2.23,6q-2.41,10.39,2.23,14.38a8.18,8.18,0,0,0,4.45,2.13,7.08,7.08,0,0,0,4.54-1,27.63,27.63,0,0,0,3.81-2.6A35.31,35.31,0,0,0,455.88,823.19Z" transform="translate(-160.86 -61.5)" style="fill:#1d1d1b"/><path d="M562.11,830.06q1.95-.1-2,4l-.18.27q-4.28,4.09-7.89,5.11a34,34,0,0,1-8.12,1,9.66,9.66,0,0,1-6.54-2.55,11.35,11.35,0,0,1-3.43-7.14,66.06,66.06,0,0,1-.56-9.47,48.86,48.86,0,0,1-10.39,9.93,52.75,52.75,0,0,1-6.31,3.94,57,57,0,0,1-7.93,3.48,13.17,13.17,0,0,1-8.07.56,7.53,7.53,0,0,1-5.15-5q-2.22-6,1.44-12.94a45.13,45.13,0,0,1,9.41-12.2,67.18,67.18,0,0,1,8.54-6.45q5.19-3.39,9.37-5.85a63.28,63.28,0,0,0,8.63-6.21,34.07,34.07,0,0,0,7-7.93c.56-.87,2.19-2.26,4.92-4.18s3.92-2.29,4-1.3a9,9,0,0,1-1.3,4.78,21.23,21.23,0,0,1-4.32,5.1q-2.93,2.65-4.36,3.76c-1,.74-2.43,1.86-4.4,3.34q-1.3.93-10.3,6.26t-12.34,9.23a18.11,18.11,0,0,0-3.34,6.22,16.86,16.86,0,0,0-.7,7.56,8,8,0,0,0,3.3,5.8c2.72,1.67,5.28,2.22,7.7,1.67a12.91,12.91,0,0,0,6.68-4.27,37.47,37.47,0,0,0,5.1-7.24,34.36,34.36,0,0,0,3-7.23,1.72,1.72,0,0,1,.18-.47c.13-2.22.19-3.83.19-4.82q.09-2.68,6.86-7l.56-.28a6.08,6.08,0,0,1,.93-.6q.46-.23,1.11-.6a4.63,4.63,0,0,1,1.21-.51c.37-.1.71-.17,1-.23a.94.94,0,0,1,.74.09.71.71,0,0,1,.28.65q0,2.31-.14,7c-.09,3.09-.16,5.39-.19,6.91s0,3.82,0,6.91q.38,7.23,3.62,9.74a7.54,7.54,0,0,0,2.87,1.34,10.56,10.56,0,0,0,2.88.38c.8,0,1.92-.13,3.34-.28S561.55,830.06,562.11,830.06Z" transform="translate(-160.86 -61.5)" style="fill:#1d1d1b"/><path d="M608.68,802.13c.93.31-.25,1.64-3.52,4l-2,1.21q-4.9,1.67-7.05-.28a3.6,3.6,0,0,1-1.06-1.72,7.93,7.93,0,0,1-.37-1.85,17.61,17.61,0,0,1,0-2.23c.06-1,.1-1.59.1-1.9a76,76,0,0,0-1.95-12.62,5.8,5.8,0,0,0-.47-1.07,4.78,4.78,0,0,1-.46-1.06c-.37.43-.78.92-1.21,1.48s-.83,1.13-1.2,1.72a6.78,6.78,0,0,1-.75,1.06,54.42,54.42,0,0,0-3.71,6c-1.17,2.19-2.15,4.08-2.92,5.66a66,66,0,0,0-2.69,6.68c-1,2.87-1.7,4.87-2,6l-2.13,7c-1.09,3.52-1.72,5.63-1.91,6.31v4.17q0,2.5-6.86,6.87-3.81,2.22-4.78,2.27c-.65,0-1-.23-1-.79q0-4.63.28-15.49t.27-16.7q0-9.46-.37-14.1,0-.28-.09-1.86c-.06-1-.12-1.84-.19-2.36a12.22,12.22,0,0,0-.41-1.9,5.85,5.85,0,0,0-.88-1.86q-.75-.93,1.62-3.34a24.13,24.13,0,0,1,5.52-4.17q3.15-1.77,4.27-1.12a5.18,5.18,0,0,1,2.08,2.69,15.82,15.82,0,0,1,1,4.64c.16,1.8.24,3.45.24,5s-.05,3.19-.14,5-.14,3-.14,3.39q0,5.38-.19,16.33A74.53,74.53,0,0,1,587.25,786q9.93-12,15.4-9.65,3.06,1.3,4.36,11.41a39.35,39.35,0,0,1-.14,4.59,38.49,38.49,0,0,0,.09,6.54C607.18,800.74,607.75,801.82,608.68,802.13Z" transform="translate(-160.86 -61.5)" style="fill:#1d1d1b"/><path d="M628.26,757.23l-11.14,11.13-11-11.13,11-11.13ZM639.2,829.5q1.95-.09-1.94,4a1.48,1.48,0,0,1-.19.28,20.1,20.1,0,0,1-7.89,5q-12,3.33-16.23-3a9.14,9.14,0,0,1-1.07-2.09,19.13,19.13,0,0,1-.6-1.9,17,17,0,0,1-.33-2.41c-.09-1.12-.14-1.81-.14-2.09v-4.5q0-4.92.19-14.75,0-7.43.56-22.27.09-2.59,6.86-6.86a7.5,7.5,0,0,1,1.12-.74c.43-.25,1.09-.59,2-1a3.28,3.28,0,0,1,1.86-.52,1.25,1.25,0,0,1,.78.79c0,.19,0,.48,0,.88s0,.7,0,.89q-.55,31.9-.56,32.1c-.12,1.73-.17,3.86-.13,6.4a19,19,0,0,0,1,6.31,7.8,7.8,0,0,0,3.62,4.59,9.35,9.35,0,0,0,5.33,1.11Q636.15,829.51,639.2,829.5Z" transform="translate(-160.86 -61.5)" style="fill:#1d1d1b"/><path d="M677.15,729.58c1.3-.06.58,1.43-2.14,4.46l-.83.83q-5.48,4.83-8.72,4.92-9.37.38-14.29.46v1.39q0,9.47-.83,37.85-.37,16.62-.47,25.15v2.87c0,.25,0,.62,0,1.12s-.05.86-.05,1.11,0,1.34-.09,3.11-.1,3-.1,3.75.06,1.77.19,3.07a22.75,22.75,0,0,0,.56,3.43,8.23,8.23,0,0,0,3.38,5.19,9.16,9.16,0,0,0,5.38,1.49l6.36-.19c.8-.06.82.48,0,1.63a18.67,18.67,0,0,1-2.18,2.73,19.91,19.91,0,0,1-7.88,5q-12.81,3.62-16.7-3.8a13.62,13.62,0,0,1-1-2.46,14.37,14.37,0,0,1-.51-3c-.09-1.14-.15-2-.19-2.6s0-1.6,0-3.06.05-2.33.05-2.64q0-4.83.19-14.29.09-9.93.69-28.34t.7-26.21c.06-4-.68-22.81-.75-23.52s-.12-1.25-.18-1.62c0-.12-.08-.81-.23-2s-.26-2.07-.33-2.51-.2-1.19-.42-2.27a11.94,11.94,0,0,0-.69-2.46,17.6,17.6,0,0,0-1-1.9,5,5,0,0,0-1.49-1.62c-.37-.25.11-1.09,1.44-2.51a27.76,27.76,0,0,1,4.64-3.94c1.76-1.21,3-1.69,3.67-1.44a8,8,0,0,1,4.45,4.18,28.36,28.36,0,0,1,2.13,7.32q.75,4.83,1.12,12.06Q668.42,730,677.15,729.58Z" transform="translate(-160.86 -61.5)" style="fill:#1d1d1b"/><path d="M722.05,828.2q1.86-.18-1.76,4l-.37.37a20.87,20.87,0,0,1-7.89,5,46,46,0,0,1-18.46,2.13,35.31,35.31,0,0,1-17-3.75,20.23,20.23,0,0,1-10.43-12,27.77,27.77,0,0,1-.74-13.45A34,34,0,0,1,670.75,798a54,54,0,0,1,10.85-11.65,50.06,50.06,0,0,1,13.55-7.93q5.93-2.13,8.62-.74,3.9.84,4.87,3.94a10.45,10.45,0,0,1-.37,6.82,36.77,36.77,0,0,1-3.38,7,32.45,32.45,0,0,1-4,5.34,57.47,57.47,0,0,1-22.08,13.54,19.58,19.58,0,0,0,5.47,8.17,26.92,26.92,0,0,0,8.91,5.29,49.6,49.6,0,0,0,5.61,1.11,45.78,45.78,0,0,0,6.17.37c2.29,0,4,0,5.2-.09s3.24-.22,6.21-.47ZM677.7,804.82a25.18,25.18,0,0,0,.56,7.61,8.08,8.08,0,0,0,1.81-.23c.65-.16,1.24-.33,1.76-.51a17.9,17.9,0,0,0,1.9-.84c.75-.37,1.33-.68,1.77-.93s1-.61,1.81-1.11,1.29-.83,1.57-1l1.53-1c.75-.49,1.15-.77,1.21-.83a27.77,27.77,0,0,0,8.91-9.56,24.07,24.07,0,0,0,2.59-7.61,4.81,4.81,0,0,0-2.31-2.13,13.4,13.4,0,0,0-7.84-1.25,15.06,15.06,0,0,0-7.57,2.92,17.19,17.19,0,0,0-5.33,7.14A29.52,29.52,0,0,0,677.7,804.82Z" transform="translate(-160.86 -61.5)" style="fill:#1d1d1b"/><path d="M509.14,900.33a50.45,50.45,0,0,1-5.66,29.87,72.29,72.29,0,0,1-21.06,24.21,90.89,90.89,0,0,1-10.2,6.54,63.41,63.41,0,0,1-11.6,4.92A41.82,41.82,0,0,1,448.7,968a22.5,22.5,0,0,1-11-2.74,24,24,0,0,1-9.09-8.67,41.91,41.91,0,0,1-5.76-15.82,50.54,50.54,0,0,1,.37-17.21,95.11,95.11,0,0,1,4.69-16.37,118,118,0,0,1,7.38-15.45q9.92-17.44,32.1-42.77a31,31,0,0,1,1-10.85,6.23,6.23,0,0,1,2-2.14,27.42,27.42,0,0,1,3.57-2.5c1.18-.68,1.76-.87,1.76-.56a40.83,40.83,0,0,0,1.12,5.38c2.47-2.72,4.3-4.76,5.47-6.12a2.85,2.85,0,0,1,1.49-.93c.12,0,.09.09-.1.28q-4.26,5.38-6.49,8.07a57.24,57.24,0,0,0,5.66,12.29q3.8,6.36,7.79,11.79t7.93,11.08A72.72,72.72,0,0,1,505.48,887,45.18,45.18,0,0,1,509.14,900.33Zm-22.91,45.18a46.07,46.07,0,0,0,10.25-26.81,48.81,48.81,0,0,0-6.36-28.11,111.54,111.54,0,0,0-6.3-9.65q-4-5.57-7-9.65a65.45,65.45,0,0,1-5.66-9.51,37.33,37.33,0,0,1-3.53-10.53q-17.44,21.43-25.42,36.55a98.14,98.14,0,0,0-7.42,18.46,62.75,62.75,0,0,0-2.18,19.67,42.18,42.18,0,0,0,5.15,19,27.19,27.19,0,0,0,9.88,10.48,22.25,22.25,0,0,0,13.68,3,37.14,37.14,0,0,0,13.83-4A34.22,34.22,0,0,0,486.23,945.51Z" transform="translate(-160.86 -61.5)" style="fill:#1d1d1b"/><path d="M580.21,954.51q1.75.09-2.23,4.26a19.91,19.91,0,0,1-7.88,5q-12.63,3.63-16.7-3.61a17.4,17.4,0,0,1-.84-2,10.87,10.87,0,0,1-.51-1.95c-.09-.58-.17-1.34-.23-2.27s-.09-1.62-.09-2.09v-4.31q0-.09.27-14.57v-1a59.78,59.78,0,0,1-11.31,19.35,43.77,43.77,0,0,1-17.26,12.29l-.83.37a6.69,6.69,0,0,1-1.3.46l-1.26.28a3.55,3.55,0,0,1-1.48,0,4.46,4.46,0,0,1-1.35-.51,5,5,0,0,1-1.48-1.63,9.42,9.42,0,0,1-1-2.08,16,16,0,0,1-.56-2.74c-.15-1.14-.25-2-.28-2.6s-.08-1.5-.14-2.73-.09-1.92-.09-2.05q-.29-4.44.37-18.83c0-.49.08-2,.23-4.36s.23-4.22.23-5.43a25.07,25.07,0,0,0-.51-4.5A10.06,10.06,0,0,0,512.3,913c-.56-.75.14-2.09,2.08-4a29.53,29.53,0,0,1,6.5-4.92c2.38-1.32,3.85-1.65,4.41-1a7.87,7.87,0,0,1,.78,1.39c.22.5.41,1,.56,1.39a8.76,8.76,0,0,1,.37,1.67c.09.68.17,1.23.23,1.63a17.13,17.13,0,0,1,.14,1.76c0,.77,0,1.3,0,1.58v3.2q0,3.43-.28,9.88c-.18,4.3-.31,6.94-.37,7.93a79.91,79.91,0,0,0,.56,13.17c.68,5.14,1.57,8,2.69,8.63,1.36.74,3.21-.18,5.56-2.78a42.22,42.22,0,0,0,5.8-8.21,79.67,79.67,0,0,0,4-8.21q1.4-3.43,3.66-9.79t3.2-8.86c0-.74,0-1.86.1-3.34s.09-2.6.09-3.34q.09-2.59,6.86-6.87a9.46,9.46,0,0,1,1.12-.74c.43-.24,1.09-.58,2-1a3.34,3.34,0,0,1,1.86-.51,1.28,1.28,0,0,1,.79.79v1.95q-.37,17.72-.47,26.35v2.32l-.09.18v2.6c0,.31,0,1.34-.09,3.11s-.1,3-.1,3.71a28.41,28.41,0,0,0,.23,3,17.38,17.38,0,0,0,.7,3.34,7.88,7.88,0,0,0,3.67,4.55,9.31,9.31,0,0,0,5.33,1.16C576.13,954.58,578.1,954.51,580.21,954.51Z" transform="translate(-160.86 -61.5)" style="fill:#1d1d1b"/><path d="M664.72,954.69q1.95-.09-1.94,4l-.19.28a19.87,19.87,0,0,1-7.89,5Q642,967.5,638,960.35a14.7,14.7,0,0,1-.84-2,12.34,12.34,0,0,1-.51-1.95c-.09-.55-.17-1.31-.23-2.27s-.09-1.67-.09-2.13v-4.32q0-4.82.18-14.66.09-7,.46-20.87-4.82,4.54-10.66,16.42-5.67,11.6-7.89,28.11c0,.06-.12.22-.37.46q-1.21,2.24-6.59,5.76a10.16,10.16,0,0,1-1.11.74c-.43.25-1.1.59-2,1a3.3,3.3,0,0,1-1.85.51,1.26,1.26,0,0,1-.79-.79q.09-2.69.28-22.91t1.58-30.53q-5.21,5.11-10.67,16.42a88.36,88.36,0,0,0-5.29,14.57q0,2.42-.14,7.05t-.23,7q-.09,2.6-6.87,6.87l-.55.27a5.49,5.49,0,0,1-.93.61c-.31.15-.68.35-1.12.6a4.58,4.58,0,0,1-1.2.51l-1,.23a1,1,0,0,1-.74-.09.71.71,0,0,1-.28-.65q.83-24.12.74-32.84,0-7-.56-14.1c0-.13,0-.7-.09-1.72s-.12-1.76-.19-2.23a13.75,13.75,0,0,0-.41-1.81,6,6,0,0,0-.79-1.76q-1.11-1.57,4.31-5.66t7.19-3.06q1.57.93,2.37,3.9a25.47,25.47,0,0,1,.88,5.56c.06,1.74.06,3.9,0,6.5s-.09,4-.09,4.36v9.28a75,75,0,0,1,4.82-10.3q9.38-16.79,20.78-19.76c.5-.13.82-.13,1,0a.5.5,0,0,1,.14.55c.49,0,.74.16.74.47q.36,6.49.41,8.9t-.23,9c-.18,4.4-.31,7.36-.37,8.91-.06,1.24-.12,3-.18,5.38s-.1,4.15-.1,5.38A72.61,72.61,0,0,1,627,920.74q9.74-16.25,21-19.21a1.49,1.49,0,0,1,1,0c.43,0,.64.25.64.74,0,.25,0,.59,0,1s0,.77,0,1q-.37,17.53-.46,26.53v2.69c0,.31,0,.71,0,1.21s0,.89,0,1.2q-.19,2.79-.14,6.73a20.33,20.33,0,0,0,1,6.54,7.94,7.94,0,0,0,3.62,4.54,9.15,9.15,0,0,0,5.33,1.16Q661.67,954.7,664.72,954.69Z" transform="translate(-160.86 -61.5)" style="fill:#1d1d1b"/><path d="M748.68,954.69q2-.09-1.94,4l-.19.28a19.87,19.87,0,0,1-7.89,5Q726,967.5,722,960.35a14.7,14.7,0,0,1-.84-2,12.34,12.34,0,0,1-.51-1.95c-.09-.55-.17-1.31-.23-2.27s-.09-1.67-.09-2.13v-4.32q0-4.82.18-14.66.09-7,.46-20.87-4.82,4.54-10.66,16.42-5.67,11.6-7.89,28.11c0,.06-.12.22-.37.46q-1.21,2.24-6.59,5.76a10.16,10.16,0,0,1-1.11.74c-.43.25-1.1.59-2,1a3.3,3.3,0,0,1-1.85.51,1.26,1.26,0,0,1-.79-.79q.09-2.69.28-22.91t1.58-30.53q-5.2,5.11-10.67,16.42a88.36,88.36,0,0,0-5.29,14.57q0,2.42-.14,7.05t-.23,7q-.09,2.6-6.87,6.87l-.55.27a5.49,5.49,0,0,1-.93.61c-.31.15-.68.35-1.12.6a4.58,4.58,0,0,1-1.2.51l-1,.23a1,1,0,0,1-.74-.09.71.71,0,0,1-.28-.65q.82-24.12.74-32.84,0-7-.56-14.1c0-.13,0-.7-.09-1.72s-.12-1.76-.19-2.23a13.75,13.75,0,0,0-.41-1.81,6,6,0,0,0-.79-1.76q-1.11-1.57,4.31-5.66t7.19-3.06q1.57.93,2.37,3.9a25.47,25.47,0,0,1,.88,5.56c.06,1.74.06,3.9,0,6.5s-.09,4-.09,4.36v9.28a75,75,0,0,1,4.82-10.3q9.38-16.79,20.78-19.76c.5-.13.82-.13,1,0a.5.5,0,0,1,.14.55c.49,0,.74.16.74.47q.36,6.49.41,8.9t-.23,9c-.18,4.4-.31,7.36-.37,8.91-.06,1.24-.12,3-.18,5.38s-.1,4.15-.1,5.38a72.61,72.61,0,0,1,8.08-18.55q9.74-16.25,21.05-19.21a1.49,1.49,0,0,1,1,0c.43,0,.64.25.64.74,0,.25,0,.59,0,1s-.05.77-.05,1q-.37,17.53-.46,26.53v2.69c0,.31,0,.71-.05,1.21s0,.89,0,1.2q-.19,2.79-.14,6.73a20.33,20.33,0,0,0,1,6.54,7.94,7.94,0,0,0,3.62,4.54,9.15,9.15,0,0,0,5.33,1.16Q745.63,954.7,748.68,954.69Z" transform="translate(-160.86 -61.5)" style="fill:#1d1d1b"/><path d="M813.25,955.06q1.95-.09-1.94,4l-.19.28c-2.85,2.72-5.47,4.42-7.89,5.1a33.92,33.92,0,0,1-8.11,1,9.62,9.62,0,0,1-6.54-2.55,11.36,11.36,0,0,1-3.44-7.15,66,66,0,0,1-.55-9.46,48.86,48.86,0,0,1-10.39,9.93,54.91,54.91,0,0,1-6.31,3.94A57.53,57.53,0,0,1,760,963.6a13.19,13.19,0,0,1-8.08.55,7.46,7.46,0,0,1-5.14-5q-2.24-6,1.43-12.94a45.47,45.47,0,0,1,9.42-12.2,65.58,65.58,0,0,1,8.54-6.44q5.19-3.39,9.37-5.85a64.1,64.1,0,0,0,8.62-6.21,33.91,33.91,0,0,0,7-7.94q.84-1.29,4.92-4.17,3.9-2.79,4-1.3a8.93,8.93,0,0,1-1.3,4.78,21.17,21.17,0,0,1-4.31,5.1q-2.93,2.64-4.36,3.76t-4.41,3.34q-1.31.93-10.3,6.26t-12.34,9.23a18.18,18.18,0,0,0-3.34,6.22,17,17,0,0,0-.69,7.56,8,8,0,0,0,3.29,5.8c2.72,1.67,5.29,2.22,7.7,1.67a12.91,12.91,0,0,0,6.68-4.27,37.47,37.47,0,0,0,5.1-7.24,34.42,34.42,0,0,0,3-7.24,1.55,1.55,0,0,1,.19-.46c.12-2.23.18-3.83.18-4.82q.09-2.7,6.87-7l.56-.28a4.52,4.52,0,0,1,.92-.6c.31-.16.68-.36,1.12-.61a5.38,5.38,0,0,1,1.2-.51l1-.23a1,1,0,0,1,.75.1.72.72,0,0,1,.27.64c0,1.55,0,3.87-.14,7s-.15,5.4-.18,6.91,0,3.82.05,6.92q.36,7.23,3.61,9.74a7.81,7.81,0,0,0,2.88,1.34,10.41,10.41,0,0,0,2.88.37c.8,0,1.91-.12,3.34-.27S812.7,955.06,813.25,955.06Z" transform="translate(-160.86 -61.5)" style="fill:#1d1d1b"/><path d="M422.12,477.67l-47.45,47.45-2.53,2.52a12.86,12.86,0,0,0,18.18,18.18l50-50C451.88,483.83,434.08,465.84,422.12,477.67Z" transform="translate(-160.86 -61.5)" style="fill:#1d1d1b"/><path d="M535.7,473.13,444.82,564C433.05,575.9,451,594,463,582.16l90.86-90.86C565.47,479.28,547.65,461.31,535.7,473.13Z" transform="translate(-160.86 -61.5)" style="fill:#1d1d1b"/><path d="M511.72,179.73c181,0,287,83.62,338,140.24,10.63-29.16,16.52-60,12.84-91C842.62,45,592.19,2.45,512.4,169.32,392-51.24,93.78,100.49,174.54,320.67,224.74,264.05,330,179.73,511.72,179.73Z" transform="translate(-160.86 -61.5)" style="fill:#1d1d1b"/><path d="M188.42,352c1.41,2.72,2.86,5.44,4.39,8.17h182c27.78-15.09,46.46-38,102.8-38.55,8.28-.11,8.37,13,0,12.85-42.36,0-66.65,17.21-82.74,28.6-8.15,5.78-14.05,9.95-20.06,9.95H199.73c29.21,51.62,67,97.87,107.36,141.16h60.37L413,468.59c13.07-14,38.77-7.13,42.91,11.6L472.09,464c13.08-14,38.77-7.13,42.92,11.6l11.6-11.6c26.73-23.93,69.63,14.89,22.85,49.84,55.4,21.86-24.67,74.76-41,95.54-13.62,14.61-40.32,6.38-43.39-13.3-14.21,7.49-33.77-1.93-36.35-18.17-14.17,7.48-33.91-1.9-36.14-18.29-20.49,10.8-44-11.31-35-32.66H319.27A1605.78,1605.78,0,0,0,512.41,696.32,1617,1617,0,0,0,705.53,527H683.2c-8.33.12-8.33-13,0-12.85h34.54C758,470.79,796,424.51,825.1,372.8H683.2c-5.94,0-14.7-4.92-32.37-15.17-113-70.81-143.09-30.59-193.37,63.56.18,2.71,12,9.62,20.15,9.62,6.18,0,10.44-4.59,18.07-13.39,5.72-7.66,34.67-34.87,41.63-42.55,7.26-7.26,8.87-8.31,17.39-8.3,11.69-5.37,88,85.1,101.13,98.47.64.64,8.1,8.35,8.1,17.17V540c.56,19.47-22.59,32.45-38.82,22-1.33,18.05-23.26,29.21-38.55,19.27-1.45,20.22-27.8,30.48-42.57,16.44-6.31-5.43,2.46-15.28,8.58-9.56,22.06,13.24,22.59-14.53,21.41-28.86v-51.4c-.12-8.33,13-8.34,12.85,0v51.4c.09,16.83,25.61,16.77,25.7,0-1-87.95,11.42-54.21-49.52-117.53-6-5.82,3.28-15,9.09-9.08l45,45c.85.85,8.31,8.56,8.31,17.39v45c.1,16.82,25.58,16.78,25.7,0V482.21c-11.87-19.83-77.78-91.52-96.86-102.8-4.36-.32-3.8,1-7.82,4.55l-32.13,32.12c-11.33,10.85-19.66,27.54-36.66,27.58-12.07.16-39.27-11.47-31.45-28.57,1.35-2.36,28.88-49.82,38.95-64.93C540.45,270,615.67,324.61,683.27,360H832q2.21-4.26,4.31-8.6C774.13,293.81,659.15,211,512.71,211,365.74,211,250.46,294.41,188.42,352Z" transform="translate(-160.86 -61.5)" style="fill:#1d1d1b"/><path d="M481.18,473.13l-72.69,72.69c-12.12,14.91,8,35.19,27.25,9.1,0,0,35.35-35.34,35.35-35.35l28.26-28.27C510.94,479.29,493.15,461.3,481.18,473.13Z" transform="translate(-160.86 -61.5)" style="fill:#1d1d1b"/><path d="M484.89,578.46l-3.71,3.71c-8.12,7.55-2,22.32,9.08,21.93,7.16,3.47,56.23-52.91,61.73-56.4,11.57-12-6.15-30-18.15-18.19Z" transform="translate(-160.86 -61.5)" style="fill:#1d1d1b"/></svg>