<svg xmlns="http://www.w3.org/2000/svg" viewBox="0 0 702.8 634.82"><path d="M261.26,416.17,213.8,463.62l-2.52,2.53a12.85,12.85,0,1,0,18.17,18.17l50-50C291,422.33,273.22,404.35,261.26,416.17Z" style="fill:#1d1d1b"/><path d="M374.84,411.63c-21.64,21.63-69.7,69.68-90.88,90.87-11.77,11.9,6.22,30,18.18,18.16,27-27,64.11-64.09,90.86-90.86C404.6,417.78,386.78,399.81,374.84,411.63Z" style="fill:#1d1d1b"/><path d="M350.86,118.23c181,0,287,83.63,338,140.24,10.63-29.15,16.53-60,12.85-91C681.76-16.54,431.33-59,351.53,107.82,231.17-112.74-67.09,39,13.67,259.18,63.87,202.55,169.14,118.23,350.86,118.23Z" style="fill:#1d1d1b"/><path d="M27.56,290.47c1.41,2.72,2.86,5.44,4.39,8.17h182c27.79-15.09,46.47-38,102.8-38.55,8.29-.1,8.37,13,0,12.85-42.35,0-66.65,17.21-82.73,28.6-8.15,5.78-14,9.95-20.07,9.95H38.87c29.2,51.62,67,97.87,107.35,141.16H206.6l45.57-45.56c13.07-14,38.77-7.13,42.91,11.6l16.15-16.14c13.07-14,38.77-7.13,42.92,11.59l11.59-11.59c26.74-23.94,69.64,14.88,22.86,49.83,55.39,21.86-24.68,74.76-41,95.54-13.61,14.62-40.31,6.38-43.39-13.3-14.2,7.49-33.76-1.93-36.34-18.17-14.18,7.48-33.92-1.9-36.14-18.28-20.5,10.79-44-11.32-35-32.67H158.41A1604.81,1604.81,0,0,0,351.54,634.82,1614.54,1614.54,0,0,0,544.66,465.5H522.34c-8.33.12-8.34-13,0-12.85h34.53C597.15,409.3,635.1,363,664.24,311.3H522.34c-6,0-14.7-4.92-32.38-15.17-113-70.81-143.09-30.59-193.36,63.56.18,2.71,12,9.63,20.14,9.63,6.18,0,10.45-4.6,18.07-13.4,5.73-7.66,34.67-34.87,41.64-42.55,7.26-7.26,8.86-8.3,17.39-8.3,11.69-5.37,88,85.11,101.13,98.47.63.64,8.09,8.35,8.09,17.17v57.83c.57,19.47-22.59,32.45-38.82,22-1.33,18.05-23.25,29.21-38.55,19.27-1.45,20.22-27.79,30.48-42.57,16.44-6.3-5.42,2.46-15.28,8.58-9.56,22.07,13.24,22.59-14.53,21.41-28.86v-51.4c-.11-8.33,13-8.34,12.85,0v51.4c.1,16.83,25.61,16.77,25.7,0-1-87.94,11.42-54.21-49.51-117.53-6-5.82,3.28-15,9.08-9.08l45,45c.84.86,8.3,8.57,8.3,17.39v45c.11,16.82,25.59,16.78,25.7,0V420.71c-11.86-19.83-77.78-91.52-96.86-102.8-4.36-.32-3.79,1-7.82,4.55l-32.12,32.12c-11.33,10.85-19.66,27.54-36.67,27.59-12.06.15-39.27-11.48-31.45-28.58,1.36-2.36,28.88-49.82,39-64.93,55.34-80.16,130.55-25.55,198.16,9.8H671.15q2.19-4.27,4.3-8.61c-62.19-57.54-177.17-140.39-323.61-140.39C204.87,149.46,89.59,232.91,27.56,290.47Z" style="fill:#1d1d1b"/><path d="M320.31,411.63l-72.68,72.69c-12.12,14.92,8,35.19,27.24,9.1,0,0,35.36-35.34,35.35-35.35l28.27-28.27C350.08,417.79,332.29,399.8,320.31,411.63Z" style="fill:#1d1d1b"/><path d="M324,517l-3.71,3.71c-8.12,7.56-2,22.33,9.09,21.93,7.16,3.47,56.22-52.91,61.72-56.4,11.57-12-6.15-30-18.15-18.19Z" style="fill:#1d1d1b"/></svg>