<svg xmlns="http://www.w3.org/2000/svg" viewBox="0 0 603.29 261.26"><path d="M90.43,78A40.11,40.11,0,0,1,101.84,89.4a19.66,19.66,0,0,1,3.16,14q-1.68,10.49-16.89,20.41a63.6,63.6,0,0,1-14.94,7.1,83.32,83.32,0,0,1-16.93,3.71,132.53,132.53,0,0,1-17,.84,136.44,136.44,0,0,1-16.75-1.35,46.63,46.63,0,0,1-6.77-1.39,44.27,44.27,0,0,1-6.64-2.51A17.54,17.54,0,0,1,3.36,126a12.33,12.33,0,0,1-3-6.07,16.42,16.42,0,0,1,2.27-12.3A59.58,59.58,0,0,1,12.69,95.9a11,11,0,0,1,3.89-2.23c.81-.37,1.21-.37,1.21,0a2.34,2.34,0,0,1-.56,1,23.63,23.63,0,0,0-3.89,8.4,16.33,16.33,0,0,0-.19,8.77q2,6.94,12.34,10.39,14.19,4.81,41.38,2.13,11.68-1.2,19.29-4.45c4.08-1.74,6.22-5,6.4-9.93A18.9,18.9,0,0,0,91,101.56a23.2,23.2,0,0,0-5-7.29,57.46,57.46,0,0,0-6.35-5.56q-3.06-2.28-7.33-4.87Q53.23,72.34,42.56,62q-2.41-2.32-4.27-4.5a38.73,38.73,0,0,1-3.52-4.92,21.61,21.61,0,0,1-2.42-5.34,16.23,16.23,0,0,1-.51-5.65,18.09,18.09,0,0,1,1.63-6.13q4.91-10.38,21.61-21.24Q71.51,3.49,83.84,2.75A19,19,0,0,1,96.69,6.32a16.08,16.08,0,0,1,6.54,11.18q1.86,13.1-13,25.42a12.85,12.85,0,0,1-4,2.32c-1.18.44-1.43.19-.75-.74l.19-.37a30.45,30.45,0,0,0,4.13-8.26,26.93,26.93,0,0,0,1.34-8.81A14.32,14.32,0,0,0,88.48,19a15,15,0,0,0-7.61-5.47q-8.16-2.88-19.29,1.57T46.18,27.25a13.93,13.93,0,0,0-1.77,7.09,17.43,17.43,0,0,0,1.26,6.4A25.54,25.54,0,0,0,49.75,47a68.49,68.49,0,0,0,4.82,5.29c1.27,1.2,3,2.8,5.34,4.78a105.62,105.62,0,0,0,9.23,7.14q5,3.43,11.55,7.56T90.43,78Z" style="fill:#1d1d1b"/><path d="M153.52,76.42q6.76,8.89,1.11,26.44-4,12.15-10.76,19.76a29.4,29.4,0,0,1-9.42,7.79,20,20,0,0,1-11.18,2.5,15.21,15.21,0,0,1-8-2.78,14.47,14.47,0,0,1-4.87-6.12,30.38,30.38,0,0,1-2.14-7.79,35,35,0,0,1-.09-8.45Q110.19,88,125,76.69q8.08-6,13-6.4h.28Q147.85,68.9,153.52,76.42Zm-33,28.11q.18,10.57,6.86,17.16,6.14,6,12.06,2.13a23.81,23.81,0,0,0,4.18-9.46,78,78,0,0,0,1.95-13.82Q146,88.66,140.25,82A14.19,14.19,0,0,0,139,80.73a11.36,11.36,0,0,0-1.48-1.16l-1.39-.93c-.37-.24-.9-.55-1.58-.93s-1.18-.64-1.48-.83a16.46,16.46,0,0,0-4.36,1.58q-2.88,1.67-5.2,7.6A47.87,47.87,0,0,0,120.49,104.53Z" style="fill:#1d1d1b"/><path d="M187.93,122.9c.81-.07.82.47,0,1.62a18.81,18.81,0,0,1-2.18,2.74,20.14,20.14,0,0,1-7.88,5q-12.81,3.61-16.7-3.81a11.85,11.85,0,0,1-1-2.46,14.26,14.26,0,0,1-.51-3c-.1-1.14-.16-2-.19-2.59s0-1.61,0-3.07.05-2.33.05-2.64q0-4.82.18-14.29.09-9.91.7-28.34t.69-26.21q.19-16.78-.83-25.14c0-.12-.06-.69-.19-1.72s-.21-1.71-.28-2.08-.17-1-.32-2a12.22,12.22,0,0,0-.51-2.18l-.7-1.81a6.48,6.48,0,0,0-1-1.76A7,7,0,0,0,156,8c-.37-.25.11-1.08,1.44-2.51A27.83,27.83,0,0,1,162.1,1.5c1.76-1.21,3-1.68,3.66-1.44a8,8,0,0,1,4.45,4.18,28.82,28.82,0,0,1,2.14,7.33q1.29,7.7,1.3,23.38,0,9.45-.84,37.85-.37,16.61-.46,25.14V103c0,.56,0,1.62-.09,3.2s-.11,2.79-.14,3.62a23.32,23.32,0,0,0,.14,3.15,22.67,22.67,0,0,0,.55,3.39,8.3,8.3,0,0,0,3.39,5.2,9.22,9.22,0,0,0,5.38,1.48Z" style="fill:#1d1d1b"/><path d="M204.63,50.53,193.5,61.66l-11-11.13,11-11.13Zm11,72.27q1.95-.09-2,4a1,1,0,0,1-.18.28,19.87,19.87,0,0,1-7.89,5q-12,3.34-16.23-3a8.57,8.57,0,0,1-1.07-2.09,18.34,18.34,0,0,1-.6-1.9,15.4,15.4,0,0,1-.33-2.41c-.09-1.11-.14-1.81-.14-2.09v-4.5q0-4.91.19-14.75,0-7.43.55-22.26c.07-1.74,2.35-4,6.87-6.87a8.9,8.9,0,0,1,1.11-.74c.44-.25,1.1-.59,2-1a3.21,3.21,0,0,1,1.85-.51,1.21,1.21,0,0,1,.79.79c0,.18,0,.48,0,.88s0,.69,0,.88q-.56,31.92-.56,32.1-.18,2.59-.14,6.4a19,19,0,0,0,1,6.31,7.77,7.77,0,0,0,3.62,4.59,9.33,9.33,0,0,0,5.33,1.11Q212.53,122.81,215.58,122.8Z" style="fill:#1d1d1b"/><path d="M286.09,122.9q1.2-.11,0,1.62a21.79,21.79,0,0,1-2.23,2.74,18.78,18.78,0,0,1-7.79,5q-12.9,3.61-16.79-3.81a11.73,11.73,0,0,1-1-2.5,13.21,13.21,0,0,1-.47-2.93c-.06-1.08-.11-2-.14-2.64s0-1.68,0-3,.05-2.21.05-2.64q0-6.41.09-9.55a86,86,0,0,1-8.62,11.13c-1.3,1.42-2.6,2.77-3.9,4s-2.91,2.77-4.83,4.5a37.74,37.74,0,0,1-5.7,4.32,43.31,43.31,0,0,1-5.89,3,14.43,14.43,0,0,1-6.13,1.11,10.71,10.71,0,0,1-5.56-1.81,9.9,9.9,0,0,1-4.45-7.51,20.65,20.65,0,0,1,1.53-10.16,69.74,69.74,0,0,1,4.68-9.65,43.87,43.87,0,0,1,5.2-7.28q5.56-6.31,17.34-14.57A72,72,0,0,0,251.67,74a40.48,40.48,0,0,0,7-9.79.3.3,0,0,1,.09-.19q.38-12.06.46-18.09.19-16.78-.83-25.14c0-.12-.06-.69-.19-1.72s-.21-1.71-.27-2.08-.18-1-.33-2a11.4,11.4,0,0,0-.51-2.18c-.18-.49-.42-1.09-.69-1.81a6.76,6.76,0,0,0-1-1.76A7,7,0,0,0,254.08,8c-.37-.25.11-1.08,1.44-2.51a27.07,27.07,0,0,1,4.69-3.94c1.79-1.21,3-1.68,3.71-1.44a7.8,7.8,0,0,1,4.4,4.13,29.5,29.5,0,0,1,2.09,7.38q1.3,7.7,1.3,23.38,0,9.45-.84,37.85-.18,8.25-.37,25.14v2.6a.68.68,0,0,0-.09.28V103c0,.31,0,1.35-.09,3.11s-.1,3-.1,3.76.07,1.76.19,3.06a22.54,22.54,0,0,0,.56,3.43,8.25,8.25,0,0,0,3.38,5.2,9.24,9.24,0,0,0,5.38,1.48Zm-40.82-6.41q7.42-8,12.62-20.78,0-.18.55-21.8-2.22,1.95-8.53,6.87L245,84.35q-3.48,2.55-5,3.76c-1,.8-2.42,2-4.18,3.66a30.2,30.2,0,0,0-4,4.41,39.26,39.26,0,0,0-2.88,4.82,26.49,26.49,0,0,0-2.23,6q-2.4,10.39,2.23,14.38a8.22,8.22,0,0,0,4.45,2.13,7.1,7.1,0,0,0,4.55-1,29.06,29.06,0,0,0,3.8-2.59A35.52,35.52,0,0,0,245.27,116.49Z" style="fill:#1d1d1b"/><path d="M351.49,123.36q2-.09-1.94,4l-.19.28c-2.85,2.72-5.47,4.42-7.89,5.1a33.88,33.88,0,0,1-8.11,1,9.62,9.62,0,0,1-6.54-2.55,11.36,11.36,0,0,1-3.44-7.14,66.2,66.2,0,0,1-.55-9.46,49.09,49.09,0,0,1-10.39,9.92,53.56,53.56,0,0,1-6.31,3.94,57.53,57.53,0,0,1-7.93,3.48,13.13,13.13,0,0,1-8.08.56,7.5,7.5,0,0,1-5.14-5q-2.24-6,1.43-12.94a45.16,45.16,0,0,1,9.42-12.2,66.47,66.47,0,0,1,8.54-6.45q5.19-3.39,9.37-5.84a63.35,63.35,0,0,0,8.62-6.22,33.87,33.87,0,0,0,7.05-7.93q.84-1.31,4.92-4.18,3.9-2.78,4-1.29a8.9,8.9,0,0,1-1.3,4.77,21.38,21.38,0,0,1-4.31,5.11c-1.95,1.76-3.41,3-4.36,3.75s-2.43,1.86-4.41,3.34q-1.31.93-10.3,6.26t-12.34,9.24a18.23,18.23,0,0,0-3.34,6.21,17,17,0,0,0-.69,7.56,8,8,0,0,0,3.29,5.8q4.08,2.5,7.7,1.67a12.91,12.91,0,0,0,6.68-4.27,37.41,37.41,0,0,0,5.1-7.23,34.64,34.64,0,0,0,3-7.24,1.55,1.55,0,0,1,.19-.46q.18-3.34.18-4.83.09-2.68,6.87-7l.56-.27a5.05,5.05,0,0,1,.92-.61c.31-.15.68-.35,1.12-.6a4.58,4.58,0,0,1,1.2-.51l1-.23a1,1,0,0,1,.75.09.74.74,0,0,1,.27.65c0,1.55,0,3.87-.14,7s-.15,5.39-.18,6.91,0,3.82.05,6.91q.36,7.25,3.61,9.74a7.82,7.82,0,0,0,2.88,1.35,10.41,10.41,0,0,0,2.88.37c.8,0,1.91-.12,3.34-.28S350.94,123.36,351.49,123.36Z" style="fill:#1d1d1b"/><path d="M398.07,95.43c.92.31-.25,1.64-3.53,4l-2,1.21q-4.92,1.66-7.05-.28a3.57,3.57,0,0,1-1.07-1.72,8.37,8.37,0,0,1-.37-1.85,20.22,20.22,0,0,1,.05-2.23c.06-1,.09-1.59.09-1.9A73.86,73.86,0,0,0,382.2,80a5.57,5.57,0,0,0-.46-1.06,5.8,5.8,0,0,1-.47-1.07c-.37.43-.77.93-1.2,1.48a19.8,19.8,0,0,0-1.21,1.72,9.17,9.17,0,0,1-.74,1.07,51.39,51.39,0,0,0-3.71,6c-1.18,2.2-2.15,4.08-2.92,5.66a64.59,64.59,0,0,0-2.69,6.68c-1,2.88-1.71,4.87-2,6s-1.06,3.44-2.14,7-1.71,5.63-1.9,6.31v4.18q0,2.51-6.87,6.86c-2.53,1.49-4.12,2.24-4.77,2.27s-1-.23-1-.78q0-4.65.28-15.5t.28-16.7q0-9.46-.37-14.1c0-.18,0-.8-.09-1.85s-.13-1.84-.19-2.37a11.52,11.52,0,0,0-.42-1.9,5.74,5.74,0,0,0-.88-1.86q-.73-.93,1.62-3.34a24.41,24.41,0,0,1,5.52-4.17q3.16-1.77,4.27-1.12a5.22,5.22,0,0,1,2.09,2.7,16.34,16.34,0,0,1,1,4.63c.15,1.8.23,3.45.23,5s0,3.18-.14,5-.14,3-.14,3.38q0,5.39-.18,16.33a74.54,74.54,0,0,1,13.64-27.09q9.92-12,15.4-9.65,3.06,1.31,4.36,11.41a42.16,42.16,0,0,1-.14,4.6,36.56,36.56,0,0,0,.09,6.54C396.57,94,397.14,95.13,398.07,95.43Z" style="fill:#1d1d1b"/><path d="M417.64,50.53,406.51,61.66l-11-11.13,11-11.13Zm10.95,72.27q1.95-.09-1.95,4a1,1,0,0,1-.18.28,20,20,0,0,1-7.89,5q-12,3.34-16.24-3a8.91,8.91,0,0,1-1.06-2.09c-.28-.77-.48-1.4-.61-1.9a17.09,17.09,0,0,1-.32-2.41c-.09-1.11-.14-1.81-.14-2.09v-4.5q0-4.91.19-14.75,0-7.43.55-22.26c.06-1.74,2.35-4,6.87-6.87a8.9,8.9,0,0,1,1.11-.74c.43-.25,1.1-.59,2-1a3.21,3.21,0,0,1,1.85-.51,1.23,1.23,0,0,1,.79.79c0,.18,0,.48-.05.88s0,.69,0,.88q-.56,31.92-.56,32.1-.18,2.59-.14,6.4a19,19,0,0,0,1,6.31,7.76,7.76,0,0,0,3.61,4.59A9.36,9.36,0,0,0,422.7,123C424.58,122.88,426.55,122.8,428.59,122.8Z" style="fill:#1d1d1b"/><path d="M466.53,22.89c1.3-.07.59,1.42-2.13,4.45l-.84.83q-5.47,4.83-8.72,4.92c-6.24.25-11,.4-14.28.46V35q0,9.45-.84,37.85-.37,16.61-.46,25.14v2.88c0,.24,0,.61-.05,1.11s0,.86,0,1.11,0,1.35-.1,3.11-.09,3-.09,3.76.06,1.76.19,3.06a22.62,22.62,0,0,0,.55,3.43,8.3,8.3,0,0,0,3.39,5.2,9.22,9.22,0,0,0,5.38,1.48l6.35-.18c.81-.07.82.47.05,1.62a18.81,18.81,0,0,1-2.18,2.74,20.1,20.1,0,0,1-7.89,5q-12.79,3.61-16.69-3.81a12.47,12.47,0,0,1-1-2.46,15.71,15.71,0,0,1-.51-3c-.09-1.14-.15-2-.18-2.59s0-1.61,0-3.07,0-2.33,0-2.64q0-4.82.18-14.29.09-9.91.7-28.34T428,45.89c.06-4-.68-22.8-.74-23.52s-.12-1.25-.19-1.62c0-.12-.07-.8-.23-2s-.26-2.07-.32-2.5-.2-1.19-.42-2.28a12.51,12.51,0,0,0-.7-2.46,15.33,15.33,0,0,0-1-1.9A5,5,0,0,0,422.93,8c-.37-.25.11-1.08,1.44-2.51A27.83,27.83,0,0,1,429,1.5c1.76-1.21,3-1.68,3.66-1.44a8,8,0,0,1,4.45,4.18,28.82,28.82,0,0,1,2.14,7.33q.74,4.81,1.11,12.06Q457.82,23.26,466.53,22.89Z" style="fill:#1d1d1b"/><path d="M511.44,121.5c1.23-.12.65,1.21-1.77,4-.18.19-.31.31-.37.37a20.53,20.53,0,0,1-7.88,5A46.25,46.25,0,0,1,483,133a35.39,35.39,0,0,1-17-3.76,20.23,20.23,0,0,1-10.44-12,27.93,27.93,0,0,1-.74-13.46,34.29,34.29,0,0,1,5.38-12.52A54.07,54.07,0,0,1,471,79.62a49.79,49.79,0,0,1,13.54-7.94q5.94-2.13,8.63-.74,3.9.84,4.87,3.94a10.51,10.51,0,0,1-.37,6.82,37.8,37.8,0,0,1-3.39,7,32.76,32.76,0,0,1-4,5.33,57.45,57.45,0,0,1-22.08,13.55,19.73,19.73,0,0,0,5.48,8.16,26.77,26.77,0,0,0,8.9,5.29,48,48,0,0,0,5.62,1.11,45.78,45.78,0,0,0,6.17.37q3.42,0,5.19-.09c1.17-.06,3.25-.21,6.22-.46ZM467.09,98.12a24.84,24.84,0,0,0,.56,7.61,8.15,8.15,0,0,0,1.81-.23,16.2,16.2,0,0,0,1.76-.51,16.81,16.81,0,0,0,1.9-.84c.74-.37,1.33-.67,1.76-.92s1-.62,1.81-1.12l1.58-1,1.53-1c.74-.49,1.14-.77,1.21-.83a27.75,27.75,0,0,0,8.9-9.56,24,24,0,0,0,2.6-7.61,5,5,0,0,0-2.32-2.13,13.46,13.46,0,0,0-7.84-1.25,15,15,0,0,0-7.56,2.92,17,17,0,0,0-5.33,7.14A29.59,29.59,0,0,0,467.09,98.12Z" style="fill:#1d1d1b"/><path d="M298.53,193.63a50.51,50.51,0,0,1-5.66,29.87,72.65,72.65,0,0,1-21.06,24.22,93.94,93.94,0,0,1-10.21,6.54A62.6,62.6,0,0,1,250,259.17a41.88,41.88,0,0,1-11.92,2.09,22.64,22.64,0,0,1-11-2.73,24.1,24.1,0,0,1-9.09-8.68A41.66,41.66,0,0,1,212.25,234a50.28,50.28,0,0,1,.37-17.21,93.36,93.36,0,0,1,4.69-16.37A117.21,117.21,0,0,1,224.68,185q9.93-17.44,32.1-42.77a31.24,31.24,0,0,1,1-10.85,6.4,6.4,0,0,1,2-2.14,27,27,0,0,1,3.57-2.5c1.17-.68,1.76-.87,1.76-.56a42.47,42.47,0,0,0,1.11,5.38c2.48-2.72,4.3-4.76,5.48-6.12a2.9,2.9,0,0,1,1.48-.93c.12,0,.09.1-.09.28q-4.28,5.38-6.5,8.07a58,58,0,0,0,5.66,12.3q3.81,6.34,7.8,11.78T288,168a72.47,72.47,0,0,1,6.86,12.3A45.45,45.45,0,0,1,298.53,193.63Zm-22.92,45.18A45.91,45.91,0,0,0,285.86,212a48.8,48.8,0,0,0-6.35-28.11,113.51,113.51,0,0,0-6.31-9.65q-4-5.56-7-9.65a66.36,66.36,0,0,1-5.66-9.51,37.61,37.61,0,0,1-3.52-10.53Q239.62,166,231.64,181.11a97,97,0,0,0-7.42,18.46A62.39,62.39,0,0,0,222,219.23a42,42,0,0,0,5.15,19,27.14,27.14,0,0,0,9.88,10.49,22.39,22.39,0,0,0,13.68,3,37.35,37.35,0,0,0,13.82-4A34.22,34.22,0,0,0,275.61,238.81Z" style="fill:#1d1d1b"/><path d="M369.59,247.81c1.18.06.43,1.48-2.22,4.27a20.17,20.17,0,0,1-7.89,5q-12.62,3.62-16.7-3.62a15.19,15.19,0,0,1-.83-2,11,11,0,0,1-.51-1.94q-.15-.89-.24-2.28c-.06-.93-.09-1.62-.09-2.08v-4.32q0-.09.28-14.56v-1a59.86,59.86,0,0,1-11.32,19.34,43.64,43.64,0,0,1-17.25,12.29l-.84.37a6.64,6.64,0,0,1-1.3.47l-1.25.27a3.44,3.44,0,0,1-1.49.05,4.31,4.31,0,0,1-1.34-.51,5,5,0,0,1-1.48-1.62,9.55,9.55,0,0,1-1-2.09,16.83,16.83,0,0,1-.56-2.74c-.15-1.14-.24-2-.27-2.59s-.08-1.5-.14-2.74-.1-1.92-.1-2q-.27-4.46.38-18.84c0-.49.07-1.94.23-4.36s.23-4.22.23-5.42a24.88,24.88,0,0,0-.51-4.5,9.93,9.93,0,0,0-1.72-4.27c-.55-.74.14-2.09,2.09-4a29.74,29.74,0,0,1,6.49-4.91q3.57-2,4.41-1a8.3,8.3,0,0,1,.79,1.39c.21.5.4,1,.56,1.4a9.4,9.4,0,0,1,.37,1.67c.09.68.17,1.22.23,1.62a17.13,17.13,0,0,1,.14,1.76c0,.78,0,1.3,0,1.58V209q0,3.43-.27,9.88t-.37,7.93a80.28,80.28,0,0,0,.55,13.18c.68,5.13,1.58,8,2.69,8.62q2,1.13,5.57-2.78a42.78,42.78,0,0,0,5.8-8.21,76.41,76.41,0,0,0,4-8.21q1.4-3.44,3.67-9.79t3.2-8.86c0-.74,0-1.85.09-3.34s.09-2.59.09-3.34q.09-2.6,6.87-6.86a7.91,7.91,0,0,1,1.11-.74c.43-.25,1.1-.59,2-1a3.18,3.18,0,0,1,1.85-.5,1.22,1.22,0,0,1,.79.78v2q-.37,17.73-.46,26.35v2.32l-.1.18v2.6c0,.31,0,1.35-.09,3.11s-.09,3-.09,3.71a26.08,26.08,0,0,0,.23,3,16.81,16.81,0,0,0,.7,3.34,7.92,7.92,0,0,0,3.66,4.54,9.26,9.26,0,0,0,5.34,1.16Q366.43,247.82,369.59,247.81Z" style="fill:#1d1d1b"/><path d="M454.11,248q2-.09-1.95,4l-.18.28a19.94,19.94,0,0,1-7.89,5q-12.7,3.53-16.7-3.62a13.75,13.75,0,0,1-.83-2,12.34,12.34,0,0,1-.51-2,20.6,20.6,0,0,1-.24-2.27q-.09-1.44-.09-2.13v-4.32q0-4.81.19-14.65.09-7,.46-20.88-4.83,4.54-10.67,16.42-5.65,11.61-7.88,28.11c0,.07-.13.22-.38.47q-1.2,2.22-6.58,5.75a8.36,8.36,0,0,1-1.12.74c-.43.25-1.09.59-2,1a3.25,3.25,0,0,1-1.86.51,1.2,1.2,0,0,1-.78-.79q.09-2.69.27-22.91T397,204.21q-5.19,5.1-10.67,16.42A89.17,89.17,0,0,0,381,235.19c0,1.61,0,4-.14,7.05s-.17,5.45-.23,7-2.35,4-6.86,6.87l-.56.28a4.87,4.87,0,0,1-.93.6l-1.11.6a4.5,4.5,0,0,1-1.21.51c-.37.1-.71.17-1,.24a.94.94,0,0,1-.74-.1.73.73,0,0,1-.28-.65q.84-24.12.75-32.84,0-7-.56-14.1c0-.12,0-.7-.09-1.72s-.13-1.76-.19-2.22a12,12,0,0,0-.42-1.81,5.68,5.68,0,0,0-.79-1.76q-1.11-1.59,4.32-5.66t7.19-3.07q1.58.93,2.36,3.9a25.6,25.6,0,0,1,.89,5.57q.09,2.59,0,6.49c-.07,2.6-.1,4.05-.1,4.36v9.28a73.94,73.94,0,0,1,4.83-10.3Q395.47,197,406.89,194c.49-.12.82-.12,1,0a.5.5,0,0,1,.14.56c.5,0,.74.15.74.46q.38,6.49.42,8.91t-.23,9q-.29,6.58-.37,8.9c-.06,1.24-.13,3-.19,5.38s-.09,4.15-.09,5.38A72.38,72.38,0,0,1,416.35,214q9.73-16.23,21.06-19.2a1.36,1.36,0,0,1,1,0c.43,0,.65.24.65.74,0,.25,0,.59-.05,1s0,.77,0,1q-.37,17.53-.47,26.53v2.69c0,.31,0,.71,0,1.21s-.05.9-.05,1.2q-.18,2.79-.14,6.73a20.3,20.3,0,0,0,1,6.54,8,8,0,0,0,3.61,4.55,9.32,9.32,0,0,0,5.34,1.16C450.1,248.07,452.07,248,454.11,248Z" style="fill:#1d1d1b"/><path d="M538.07,248q1.95-.09-2,4l-.18.28a19.94,19.94,0,0,1-7.89,5q-12.7,3.53-16.7-3.62a13.75,13.75,0,0,1-.83-2,12.34,12.34,0,0,1-.51-2,20.6,20.6,0,0,1-.24-2.27q-.09-1.44-.09-2.13v-4.32q0-4.81.19-14.65.09-7,.46-20.88-4.83,4.54-10.67,16.42-5.66,11.61-7.88,28.11c0,.07-.13.22-.38.47q-1.2,2.22-6.58,5.75a8.36,8.36,0,0,1-1.12.74c-.43.25-1.09.59-2,1a3.25,3.25,0,0,1-1.86.51,1.2,1.2,0,0,1-.78-.79q.09-2.69.27-22.91t1.58-30.52q-5.19,5.1-10.67,16.42A89.17,89.17,0,0,0,465,235.19c0,1.61,0,4-.14,7.05s-.17,5.45-.23,7-2.35,4-6.86,6.87l-.56.28a4.87,4.87,0,0,1-.93.6l-1.11.6a4.5,4.5,0,0,1-1.21.51c-.37.1-.71.17-1,.24a.94.94,0,0,1-.74-.1.73.73,0,0,1-.28-.65q.84-24.12.75-32.84,0-7-.56-14.1c0-.12,0-.7-.09-1.72s-.13-1.76-.19-2.22a12,12,0,0,0-.42-1.81,5.68,5.68,0,0,0-.79-1.76q-1.11-1.59,4.32-5.66t7.19-3.07q1.57.93,2.36,3.9a25.6,25.6,0,0,1,.89,5.57q.09,2.59,0,6.49c-.07,2.6-.1,4.05-.1,4.36v9.28a73.94,73.94,0,0,1,4.83-10.3Q479.43,197,490.85,194c.49-.12.82-.12,1,0a.5.5,0,0,1,.14.56c.5,0,.74.15.74.46q.38,6.49.42,8.91t-.23,9q-.28,6.58-.37,8.9c-.06,1.24-.13,3-.19,5.38s-.09,4.15-.09,5.38A72.38,72.38,0,0,1,500.31,214q9.74-16.23,21.06-19.2a1.36,1.36,0,0,1,1,0c.43,0,.65.24.65.74,0,.25,0,.59,0,1s0,.77,0,1q-.37,17.53-.47,26.53v2.69c0,.31,0,.71,0,1.21s-.05.9-.05,1.2q-.18,2.79-.14,6.73a20.3,20.3,0,0,0,1,6.54,8,8,0,0,0,3.61,4.55,9.32,9.32,0,0,0,5.34,1.16C534.06,248.07,536,248,538.07,248Z" style="fill:#1d1d1b"/><path d="M602.64,248.37c1.3-.06.65,1.26-1.95,4l-.18.27q-4.28,4.1-7.89,5.11a34,34,0,0,1-8.12,1,9.66,9.66,0,0,1-6.54-2.55,11.35,11.35,0,0,1-3.43-7.14,66.06,66.06,0,0,1-.56-9.47,48.62,48.62,0,0,1-10.39,9.93,54.06,54.06,0,0,1-6.31,3.94,57,57,0,0,1-7.93,3.48,13.17,13.17,0,0,1-8.07.56,7.53,7.53,0,0,1-5.15-5q-2.22-6,1.44-12.94a45,45,0,0,1,9.42-12.2,66.29,66.29,0,0,1,8.53-6.45q5.19-3.39,9.37-5.85a63.28,63.28,0,0,0,8.63-6.21,34.07,34.07,0,0,0,7-7.93c.56-.87,2.19-2.26,4.92-4.18s3.92-2.29,4-1.3a9,9,0,0,1-1.3,4.78,21.23,21.23,0,0,1-4.32,5.1q-2.93,2.65-4.36,3.76c-1,.74-2.43,1.86-4.4,3.34q-1.3.93-10.3,6.26t-12.34,9.23a18.11,18.11,0,0,0-3.34,6.22,16.86,16.86,0,0,0-.7,7.56,8,8,0,0,0,3.3,5.8c2.72,1.67,5.29,2.22,7.7,1.67a12.91,12.91,0,0,0,6.68-4.27,37.47,37.47,0,0,0,5.1-7.24,34.36,34.36,0,0,0,3-7.23,1.72,1.72,0,0,1,.18-.47c.13-2.22.19-3.83.19-4.82q.09-2.69,6.86-7l.56-.28a6.08,6.08,0,0,1,.93-.6q.47-.23,1.11-.6a4.63,4.63,0,0,1,1.21-.51c.37-.1.71-.17,1-.23a.9.9,0,0,1,.74.09.71.71,0,0,1,.28.65q0,2.31-.14,7t-.19,6.91c0,1.51,0,3.82.05,6.91q.38,7.23,3.62,9.74a7.68,7.68,0,0,0,2.88,1.35,10.79,10.79,0,0,0,2.87.37c.8,0,1.92-.13,3.34-.28S602.08,248.37,602.64,248.37Z" style="fill:#1d1d1b"/></svg>